<svg id="Groupe_35" data-name="Groupe 35" xmlns="http://www.w3.org/2000/svg" width="34.449" height="34.373" viewBox="0 0 34.449 34.373">
  <path id="Tracé_12" data-name="Tracé 12" d="M22.425,8.355A14.131,14.131,0,1,1,8.255,22.486,14.181,14.181,0,0,1,22.425,8.355m0-3.055A17.186,17.186,0,1,0,39.649,22.486,17.2,17.2,0,0,0,22.425,5.3Z" transform="translate(-5.2 -5.3)" fill="#0098ff"/>
  <path id="Tracé_13" data-name="Tracé 13" d="M49.455,25.228V36.8a1.528,1.528,0,0,1-3.055,0V25.228a1.528,1.528,0,1,1,3.055,0Z" transform="translate(-30.665 -16.673)" fill="#0098ff"/>
  <circle id="Ellipse_8" data-name="Ellipse 8" cx="1.566" cy="1.566" r="1.566" transform="translate(15.659 24.252)" fill="#0098ff"/>
</svg>
