<svg xmlns="http://www.w3.org/2000/svg" width="33.625" height="33.55" viewBox="0 0 33.625 33.55">
  <g id="Groupe_26" data-name="Groupe 26" transform="translate(0 0)">
    <path id="Tracé_12" data-name="Tracé 12" d="M22.012,8.282A13.793,13.793,0,1,1,8.182,22.075,13.841,13.841,0,0,1,22.012,8.282m0-2.982A16.775,16.775,0,1,0,38.825,22.075,16.784,16.784,0,0,0,22.012,5.3Z" transform="translate(-5.2 -5.3)" fill="#b00"/>
    <path id="Tracé_13" data-name="Tracé 13" d="M49.382,25.191v11.3a1.491,1.491,0,1,1-2.982,0v-11.3a1.491,1.491,0,0,1,2.982,0Z" transform="translate(-31.041 -16.841)" fill="#b00"/>
    <circle id="Ellipse_8" data-name="Ellipse 8" cx="1.528" cy="1.528" r="1.528" transform="translate(15.284 23.671)" fill="#b00"/>
  </g>
</svg>
